<svg xmlns="http://www.w3.org/2000/svg" xmlns:xlink="http://www.w3.org/1999/xlink" width="49px" height="48px" viewBox="0 0 49 48" version="1.1">
    <title>yp-logo-01</title>
    <g id="Page-1" stroke="none" stroke-width="1" fill="none" fill-rule="evenodd">
        <g id="05_06service" transform="translate(-31.000000, -27.000000)">
            <g id="Group-11" transform="translate(31.500000, 27.000000)">
                <path d="M48,24 C48,37.2548267 37.2548267,48 24,48 C10.7451733,48 0,37.2548267 0,24 C0,10.7451733 10.7451733,0 24,0 C37.2548267,0 48,10.7451733 48,24" id="Fill-1" fill="#FCD100"/>
                <path d="M18.4764587,13.7204267 C18.4079787,13.67456 18.3552853,13.6325333 18.2966187,13.6011733 C17.7287253,13.2967467 17.1311787,13.0827733 16.4873387,13.01024 C16.1538987,12.97248 15.8356053,12.8826667 15.540352,12.7184 C15.5015253,12.69664 15.4541653,12.6896 15.386752,12.6680533 C15.4669653,12.88864 15.5405653,13.0753067 15.603072,13.2658133 C15.775232,13.7904 15.8991787,14.3271467 15.9968853,14.8702933 C16.0130987,14.95968 16.004352,15.06336 16.0845653,15.12736 C16.8807253,14.65888 17.6687787,14.19552 18.4764587,13.7204267 M12.0534187,28.8865067 C11.9574187,28.88032 11.8895787,28.8696533 11.8221653,28.8722133 C10.9959253,28.9044267 10.197632,29.09536 9.40296533,29.304 C9.340672,29.3204267 9.285632,29.3639467 9.20477867,29.4068267 C9.27880533,29.54848 9.331072,29.6786133 9.408512,29.7912533 C9.61693867,30.09312 9.83112533,30.3911467 10.0521387,30.6836267 C10.246272,30.9409067 10.4896853,31.16128 10.6234453,31.4631467 C10.6338987,31.4864 10.6518187,31.5073067 10.669312,31.52672 C10.757632,31.62592 10.828672,31.63424 10.9440853,31.5568 C10.9801387,31.5326933 11.0140587,31.5041067 11.045632,31.47424 C11.380352,31.15808 11.6525653,30.8011733 11.7946453,30.35424 C11.9220053,29.9525333 11.999872,29.54144 12.0521387,29.1245867 C12.060672,29.05696 12.0534187,28.9872 12.0534187,28.8865067 M29.317632,11.7517867 C29.375232,11.93696 29.412992,12.0798933 29.463552,12.2177067 C29.729152,12.9434667 29.8112853,13.6929067 29.814272,14.4634667 C29.8196053,15.68672 29.5418453,16.8423467 29.078272,17.9632 C28.9543253,18.2625067 28.8423253,18.5669333 28.720512,18.8673067 C28.627072,19.0977067 28.627712,19.3240533 28.7104853,19.5589333 C28.8098987,19.8413867 28.9287253,20.1125333 29.0998187,20.36 C29.1783253,20.4734933 29.242752,20.5940267 29.2252587,20.75616 C29.0998187,20.7329067 29.0324053,20.6593067 28.9856853,20.5793067 C28.821632,20.3006933 28.6586453,20.0208 28.5122987,19.7330133 C28.408832,19.5290667 28.424832,19.3133867 28.4937387,19.0936533 C28.7266987,18.3495467 28.9556053,17.60416 29.1753387,16.8562133 C29.4863787,15.7972267 29.5252053,14.71584 29.4093653,13.6261333 C29.3846187,13.3925333 29.3340587,13.1578667 29.264512,12.93344 C28.9850453,12.0293333 28.6998187,11.12736 28.404352,10.2285867 C28.209792,9.63616 27.914112,9.08789333 27.6322987,8.53194667 C27.052032,8.70496 26.4794453,8.85856 25.9194453,9.04928 C25.572992,9.16704 25.242752,9.33493333 24.911232,9.49322667 C24.6759253,9.60544 24.5078187,9.78890667 24.3853653,10.0248533 C24.1997653,10.3824 23.9956053,10.7301333 23.7959253,11.0804267 C23.412352,11.7528533 23.128832,12.46944 22.8589653,13.1924267 C22.8160853,13.3072 22.778752,13.4253867 22.7220053,13.5335467 C22.6624853,13.6472533 22.591232,13.7607467 22.415872,13.7799467 C22.426112,13.7170133 22.424832,13.66624 22.4429653,13.6235733 C22.564992,13.3330133 22.692992,13.0448 22.814592,12.7540267 C22.8470187,12.6765867 22.8636587,12.5927467 22.8924587,12.4954667 C22.765312,12.47264 22.6806187,12.52512 22.5948587,12.5573333 C21.5593387,12.9426133 20.5545387,13.3976533 19.5554987,13.8689067 C18.1728853,14.5210667 16.861952,15.2952533 15.5834453,16.1285333 C15.4823253,16.1946667 15.381632,16.2712533 15.3039787,16.3627733 C14.273792,17.57536 13.3622187,18.872 12.6287787,20.28512 C12.322432,20.8747733 12.0758187,21.4957867 11.8134187,22.1074133 C11.691392,22.3915733 11.710592,22.7019733 11.7850453,22.9872 C11.9079253,23.45888 11.852672,23.90624 11.7012053,24.3538133 C11.676032,24.4280533 11.6480853,24.5042133 11.6060587,24.5694933 C11.2007253,25.19968 10.9538987,25.9070933 10.6210987,26.5722667 C10.4719787,26.8698667 10.3100587,27.1608533 10.147712,27.4514133 C9.87016533,27.94848 9.58728533,28.4429867 9.30824533,28.9394133 C9.26728533,29.0128 9.20157867,29.08256 9.251712,29.2005333 C9.31336533,29.1858133 9.380992,29.1792 9.441152,29.1540267 C10.203392,28.83424 11.0050987,28.6407467 11.796992,28.4180267 C11.9209387,28.3828267 12.057472,28.3757867 12.1871787,28.3815467 C12.3548587,28.3888 12.4041387,28.4596267 12.429952,28.6288 C12.5396053,29.35136 12.3209387,30.0011733 11.9725653,30.61344 C11.728512,31.0420267 11.4198187,31.4241067 11.0114987,31.7146667 C10.9910187,31.7291733 10.9767253,31.7522133 10.9474987,31.7848533 C10.9801387,31.8407467 11.0108587,31.9013333 11.048832,31.9568 C11.4396587,32.5332267 11.898752,33.04928 12.428032,33.50112 C12.5468587,33.60224 12.6842453,33.6843733 12.8205653,33.7616 C13.0042453,33.8654933 13.1330987,34.01312 13.2199253,34.20128 C13.372032,34.5313067 13.5926187,34.8152533 13.8362453,35.07872 C13.946752,35.1984 14.0960853,35.28224 14.2300587,35.3790933 C14.3145387,35.44032 14.4160853,35.4832 14.488192,35.5559467 C14.5888853,35.65728 14.701312,35.6696533 14.826112,35.64384 C15.8599253,35.4309333 16.863232,35.1275733 17.792512,34.6136533 C18.275072,34.3469867 18.7830187,34.1229867 19.217792,33.7752533 C19.258752,33.7424 19.299712,33.70912 19.3434453,33.6801067 C19.831552,33.3534933 20.232192,32.9460267 20.5306453,32.4363733 C20.6183253,32.2864 20.7392853,32.1554133 20.8470187,32.0173867 C21.2666453,31.4776533 21.5023787,30.8619733 21.5808853,30.1880533 C21.618432,29.8669867 21.6905387,29.6752 22.1095253,29.5691733 C22.2364587,29.5371733 22.366592,29.5160533 22.496512,29.5000533 C22.543232,29.49408 22.5940053,29.5179733 22.6343253,29.5265067 C22.6754987,29.62912 22.6242987,29.6914133 22.580352,29.7575467 C22.4834987,29.9028267 22.3964587,30.0555733 22.2912853,30.1946667 C22.1965653,30.3194667 22.0924587,30.44 21.9766187,30.5445333 C21.7647787,30.73632 21.6084053,30.9656533 21.475712,31.2141867 C21.4605653,31.2423467 21.457152,31.27648 21.4390187,31.3402667 C21.7692587,31.2538667 22.081152,31.2344533 22.394112,31.2658133 C22.6816853,31.2948267 22.9684053,31.3317333 23.2544853,31.3716267 C24.061312,31.4846933 24.8687787,31.59264 25.6732587,31.7185067 C26.3478187,31.8238933 27.0247253,31.92608 27.6903253,32.0747733 C28.9033387,32.34592 29.965312,32.9185067 30.8922453,33.7498667 C31.948672,34.6970667 32.8692053,35.76096 33.6621653,36.9355733 C34.3100587,37.8957867 34.8758187,38.9042133 35.385472,39.9442133 C35.400832,39.97536 35.413632,40.0082133 35.4082987,40.0589867 C35.3620053,40.00544 35.315072,39.95232 35.269632,39.8981333 C35.2188587,39.8375467 35.167872,39.7773867 35.1202987,39.7146667 C34.432512,38.8065067 33.744512,37.89856 33.0586453,36.9893333 C32.3284053,36.0218667 31.523712,35.1218133 30.6452053,34.2861867 C29.4554453,33.15488 28.0527787,32.44192 26.4423253,32.15008 C25.6327253,32.0033067 24.8154453,31.8987733 24.000512,31.7842133 C23.497472,31.7133867 22.9933653,31.6466133 22.4877653,31.60352 C22.2106453,31.5800533 21.9292587,31.6077867 21.649792,31.6148267 C21.5277653,31.6180267 21.405952,31.6274133 21.258112,31.6357333 C21.194752,31.7575467 21.1220053,31.8859733 21.059712,32.0197333 C20.7670187,32.64992 20.3444053,33.1826133 19.8292053,33.6423467 C19.4151253,34.0116267 18.933632,34.28448 18.4647253,34.5765333 C17.839872,34.9658667 17.1476053,35.1888 16.453632,35.40512 C15.9273387,35.5693867 15.396352,35.7223467 14.860032,35.8484267 C14.6441387,35.8989867 14.4073387,35.8802133 14.1820587,35.86336 C13.9849387,35.8488533 13.822592,35.7345067 13.6796587,35.5986133 C13.4528853,35.3831467 13.301632,35.1169067 13.1732053,34.8370133 C13.085312,34.64608 13.0076587,34.4504533 12.9282987,34.25568 C12.866432,34.104 12.7689387,33.99904 12.618752,33.9181867 C11.875072,33.51712 11.255552,32.9688533 10.7484587,32.2932267 C10.6471253,32.1579733 10.5679787,32.0133333 10.5466453,31.8426667 C10.5340587,31.7413333 10.4937387,31.65472 10.3996587,31.608 C10.063872,31.4407467 9.84968533,31.1489067 9.64360533,30.8555733 C9.43197867,30.5549867 9.254912,30.2302933 9.043712,29.92928 C8.772992,29.5437867 8.82760533,29.15488 8.99229867,28.7565867 C9.06248533,28.5869867 9.133312,28.4171733 9.212032,28.2512 C9.343232,27.9745067 9.468672,27.6939733 9.61864533,27.4273067 C10.2375253,26.3262933 10.8032853,25.2001067 11.2937387,24.0357333 C11.4018987,23.7790933 11.4413653,23.5301333 11.398912,23.2455467 C11.322112,22.7282133 11.400832,22.2200533 11.572992,21.72064 C11.9437653,20.6450133 12.442112,19.6350933 13.077632,18.6930133 C13.381632,18.24288 13.7014187,17.8036267 14.0103253,17.3566933 C14.1197653,17.1986133 14.2255787,17.0369067 14.3207253,16.8698667 C14.5314987,16.4986667 14.8028587,16.18592 15.1424853,15.9252267 C15.3564587,15.7607467 15.5478187,15.56704 15.753472,15.3829333 C15.6930987,15.1736533 15.6250453,14.9752533 15.578752,14.7719467 C15.412352,14.03744 15.2205653,13.3080533 15.1318187,12.55776 C15.1215787,12.4717867 15.082752,12.39008 15.0671787,12.30432 C15.0498987,12.2104533 15.1098453,12.1483733 15.2047787,12.1665067 C15.2809387,12.1808 15.3577387,12.2072533 15.4266453,12.2430933 C15.7735253,12.4231467 16.1436587,12.5268267 16.5289387,12.5716267 C17.2634453,12.6571733 17.9106987,12.9451733 18.4905387,13.3950933 C18.5735253,13.4593067 18.6509653,13.5303467 18.742272,13.608 C18.792832,13.5911467 18.851712,13.5774933 18.9050453,13.5525333 C19.8426453,13.1134933 20.8092587,12.7486933 21.7916587,12.4248533 C22.1404587,12.3098667 22.4890453,12.1925333 22.8416853,12.09056 C22.9876053,12.04832 23.056512,11.96896 23.0900053,11.8258133 C23.2756053,11.0337067 23.6500053,10.31712 23.9964587,9.58965333 C24.0864853,9.40021333 24.2343253,9.2624 24.4105387,9.16064 C24.6985387,8.99424 24.992512,8.83744 25.287552,8.68362667 C25.8249387,8.40288 26.383232,8.1712 26.9703253,8.01802667 C27.154432,7.96981333 27.3487787,7.95530667 27.5394987,7.94186667 C27.6820053,7.93205333 27.7750187,8.01333333 27.8522453,8.13834667 C28.4045653,9.03328 28.743552,10.01888 29.0844587,11.0042667 C29.0957653,11.0373333 29.107072,11.0706133 29.1145387,11.1047467 C29.1405653,11.2237867 29.2135253,11.27712 29.3346987,11.28928 C29.665792,11.3229867 29.9951787,11.3744 30.3264853,11.40064 C31.124352,11.46336 31.9017387,11.6382933 32.680192,11.8093867 C33.5202987,11.99392 34.3401387,12.2469333 35.1510187,12.5300267 C35.3818453,12.6106667 35.603712,12.7175467 35.8287787,12.8146133 C35.865472,12.8306133 35.896192,12.8594133 35.975552,12.9133867 C35.7818453,12.9264 35.6476587,12.8976 35.516672,12.8677333 C35.192192,12.79392 34.8694187,12.71264 34.546432,12.63264 C33.7632853,12.43872 32.9692587,12.3032533 32.1728853,12.17888 C31.4112853,12.0602667 30.650112,11.9386667 29.8882987,11.82112 C29.716992,11.7946667 29.5439787,11.77888 29.317632,11.7517867" id="Fill-3" fill="#000000"/>
                <path d="M18.4764587,13.7204267 C18.4079787,13.67456 18.3552853,13.6325333 18.2966187,13.6011733 C17.7287253,13.2967467 17.1311787,13.0827733 16.4873387,13.01024 C16.1538987,12.97248 15.8356053,12.8826667 15.540352,12.7184 C15.5015253,12.69664 15.4541653,12.6896 15.386752,12.6680533 C15.4669653,12.88864 15.5405653,13.0753067 15.603072,13.2658133 C15.775232,13.7904 15.8991787,14.3271467 15.9968853,14.8702933 C16.0130987,14.95968 16.004352,15.06336 16.0845653,15.12736 C16.8807253,14.65888 17.6687787,14.19552 18.4764587,13.7204267 Z M12.0534187,28.8865067 C11.9574187,28.88032 11.8895787,28.8696533 11.8221653,28.8722133 C10.9959253,28.9044267 10.197632,29.09536 9.40296533,29.304 C9.340672,29.3204267 9.285632,29.3639467 9.20477867,29.4068267 C9.27880533,29.54848 9.331072,29.6786133 9.408512,29.7912533 C9.61693867,30.09312 9.83112533,30.3911467 10.0521387,30.6836267 C10.246272,30.9409067 10.4896853,31.16128 10.6234453,31.4631467 C10.6338987,31.4864 10.6518187,31.5073067 10.669312,31.52672 C10.757632,31.62592 10.828672,31.63424 10.9440853,31.5568 C10.9801387,31.5326933 11.0140587,31.5041067 11.045632,31.47424 C11.380352,31.15808 11.6525653,30.8011733 11.7946453,30.35424 C11.9220053,29.9525333 11.999872,29.54144 12.0521387,29.1245867 C12.060672,29.05696 12.0534187,28.9872 12.0534187,28.8865067 Z M29.317632,11.7517867 C29.375232,11.93696 29.412992,12.0798933 29.463552,12.2177067 C29.729152,12.9434667 29.8112853,13.6929067 29.814272,14.4634667 C29.8196053,15.68672 29.5418453,16.8423467 29.078272,17.9632 C28.9543253,18.2625067 28.8423253,18.5669333 28.720512,18.8673067 C28.627072,19.0977067 28.627712,19.3240533 28.7104853,19.5589333 C28.8098987,19.8413867 28.9287253,20.1125333 29.0998187,20.36 C29.1783253,20.4734933 29.242752,20.5940267 29.2252587,20.75616 C29.0998187,20.7329067 29.0324053,20.6593067 28.9856853,20.5793067 C28.821632,20.3006933 28.6586453,20.0208 28.5122987,19.7330133 C28.408832,19.5290667 28.424832,19.3133867 28.4937387,19.0936533 C28.7266987,18.3495467 28.9556053,17.60416 29.1753387,16.8562133 C29.4863787,15.7972267 29.5252053,14.71584 29.4093653,13.6261333 C29.3846187,13.3925333 29.3340587,13.1578667 29.264512,12.93344 C28.9850453,12.0293333 28.6998187,11.12736 28.404352,10.2285867 C28.209792,9.63616 27.914112,9.08789333 27.6322987,8.53194667 C27.052032,8.70496 26.4794453,8.85856 25.9194453,9.04928 C25.572992,9.16704 25.242752,9.33493333 24.911232,9.49322667 C24.6759253,9.60544 24.5078187,9.78890667 24.3853653,10.0248533 C24.1997653,10.3824 23.9956053,10.7301333 23.7959253,11.0804267 C23.412352,11.7528533 23.128832,12.46944 22.8589653,13.1924267 C22.8160853,13.3072 22.778752,13.4253867 22.7220053,13.5335467 C22.6624853,13.6472533 22.591232,13.7607467 22.415872,13.7799467 C22.426112,13.7170133 22.424832,13.66624 22.4429653,13.6235733 C22.564992,13.3330133 22.692992,13.0448 22.814592,12.7540267 C22.8470187,12.6765867 22.8636587,12.5927467 22.8924587,12.4954667 C22.765312,12.47264 22.6806187,12.52512 22.5948587,12.5573333 C21.5593387,12.9426133 20.5545387,13.3976533 19.5554987,13.8689067 C18.1728853,14.5210667 16.861952,15.2952533 15.5834453,16.1285333 C15.4823253,16.1946667 15.381632,16.2712533 15.3039787,16.3627733 C14.273792,17.57536 13.3622187,18.872 12.6287787,20.28512 C12.322432,20.8747733 12.0758187,21.4957867 11.8134187,22.1074133 C11.691392,22.3915733 11.710592,22.7019733 11.7850453,22.9872 C11.9079253,23.45888 11.852672,23.90624 11.7012053,24.3538133 C11.676032,24.4280533 11.6480853,24.5042133 11.6060587,24.5694933 C11.2007253,25.19968 10.9538987,25.9070933 10.6210987,26.5722667 C10.4719787,26.8698667 10.3100587,27.1608533 10.147712,27.4514133 C9.87016533,27.94848 9.58728533,28.4429867 9.30824533,28.9394133 C9.26728533,29.0128 9.20157867,29.08256 9.251712,29.2005333 C9.31336533,29.1858133 9.380992,29.1792 9.441152,29.1540267 C10.203392,28.83424 11.0050987,28.6407467 11.796992,28.4180267 C11.9209387,28.3828267 12.057472,28.3757867 12.1871787,28.3815467 C12.3548587,28.3888 12.4041387,28.4596267 12.429952,28.6288 C12.5396053,29.35136 12.3209387,30.0011733 11.9725653,30.61344 C11.728512,31.0420267 11.4198187,31.4241067 11.0114987,31.7146667 C10.9910187,31.7291733 10.9767253,31.7522133 10.9474987,31.7848533 C10.9801387,31.8407467 11.0108587,31.9013333 11.048832,31.9568 C11.4396587,32.5332267 11.898752,33.04928 12.428032,33.50112 C12.5468587,33.60224 12.6842453,33.6843733 12.8205653,33.7616 C13.0042453,33.8654933 13.1330987,34.01312 13.2199253,34.20128 C13.372032,34.5313067 13.5926187,34.8152533 13.8362453,35.07872 C13.946752,35.1984 14.0960853,35.28224 14.2300587,35.3790933 C14.3145387,35.44032 14.4160853,35.4832 14.488192,35.5559467 C14.5888853,35.65728 14.701312,35.6696533 14.826112,35.64384 C15.8599253,35.4309333 16.863232,35.1275733 17.792512,34.6136533 C18.275072,34.3469867 18.7830187,34.1229867 19.217792,33.7752533 C19.258752,33.7424 19.299712,33.70912 19.3434453,33.6801067 C19.831552,33.3534933 20.232192,32.9460267 20.5306453,32.4363733 C20.6183253,32.2864 20.7392853,32.1554133 20.8470187,32.0173867 C21.2666453,31.4776533 21.5023787,30.8619733 21.5808853,30.1880533 C21.618432,29.8669867 21.6905387,29.6752 22.1095253,29.5691733 C22.2364587,29.5371733 22.366592,29.5160533 22.496512,29.5000533 C22.543232,29.49408 22.5940053,29.5179733 22.6343253,29.5265067 C22.6754987,29.62912 22.6242987,29.6914133 22.580352,29.7575467 C22.4834987,29.9028267 22.3964587,30.0555733 22.2912853,30.1946667 C22.1965653,30.3194667 22.0924587,30.44 21.9766187,30.5445333 C21.7647787,30.73632 21.6084053,30.9656533 21.475712,31.2141867 C21.4605653,31.2423467 21.457152,31.27648 21.4390187,31.3402667 C21.7692587,31.2538667 22.081152,31.2344533 22.394112,31.2658133 C22.6816853,31.2948267 22.9684053,31.3317333 23.2544853,31.3716267 C24.061312,31.4846933 24.8687787,31.59264 25.6732587,31.7185067 C26.3478187,31.8238933 27.0247253,31.92608 27.6903253,32.0747733 C28.9033387,32.34592 29.965312,32.9185067 30.8922453,33.7498667 C31.948672,34.6970667 32.8692053,35.76096 33.6621653,36.9355733 C34.3100587,37.8957867 34.8758187,38.9042133 35.385472,39.9442133 C35.400832,39.97536 35.413632,40.0082133 35.4082987,40.0589867 C35.3620053,40.00544 35.315072,39.95232 35.269632,39.8981333 C35.2188587,39.8375467 35.167872,39.7773867 35.1202987,39.7146667 C34.432512,38.8065067 33.744512,37.89856 33.0586453,36.9893333 C32.3284053,36.0218667 31.523712,35.1218133 30.6452053,34.2861867 C29.4554453,33.15488 28.0527787,32.44192 26.4423253,32.15008 C25.6327253,32.0033067 24.8154453,31.8987733 24.000512,31.7842133 C23.497472,31.7133867 22.9933653,31.6466133 22.4877653,31.60352 C22.2106453,31.5800533 21.9292587,31.6077867 21.649792,31.6148267 C21.5277653,31.6180267 21.405952,31.6274133 21.258112,31.6357333 C21.194752,31.7575467 21.1220053,31.8859733 21.059712,32.0197333 C20.7670187,32.64992 20.3444053,33.1826133 19.8292053,33.6423467 C19.4151253,34.0116267 18.933632,34.28448 18.4647253,34.5765333 C17.839872,34.9658667 17.1476053,35.1888 16.453632,35.40512 C15.9273387,35.5693867 15.396352,35.7223467 14.860032,35.8484267 C14.6441387,35.8989867 14.4073387,35.8802133 14.1820587,35.86336 C13.9849387,35.8488533 13.822592,35.7345067 13.6796587,35.5986133 C13.4528853,35.3831467 13.301632,35.1169067 13.1732053,34.8370133 C13.085312,34.64608 13.0076587,34.4504533 12.9282987,34.25568 C12.866432,34.104 12.7689387,33.99904 12.618752,33.9181867 C11.875072,33.51712 11.255552,32.9688533 10.7484587,32.2932267 C10.6471253,32.1579733 10.5679787,32.0133333 10.5466453,31.8426667 C10.5340587,31.7413333 10.4937387,31.65472 10.3996587,31.608 C10.063872,31.4407467 9.84968533,31.1489067 9.64360533,30.8555733 C9.43197867,30.5549867 9.254912,30.2302933 9.043712,29.92928 C8.772992,29.5437867 8.82760533,29.15488 8.99229867,28.7565867 C9.06248533,28.5869867 9.133312,28.4171733 9.212032,28.2512 C9.343232,27.9745067 9.468672,27.6939733 9.61864533,27.4273067 C10.2375253,26.3262933 10.8032853,25.2001067 11.2937387,24.0357333 C11.4018987,23.7790933 11.4413653,23.5301333 11.398912,23.2455467 C11.322112,22.7282133 11.400832,22.2200533 11.572992,21.72064 C11.9437653,20.6450133 12.442112,19.6350933 13.077632,18.6930133 C13.381632,18.24288 13.7014187,17.8036267 14.0103253,17.3566933 C14.1197653,17.1986133 14.2255787,17.0369067 14.3207253,16.8698667 C14.5314987,16.4986667 14.8028587,16.18592 15.1424853,15.9252267 C15.3564587,15.7607467 15.5478187,15.56704 15.753472,15.3829333 C15.6930987,15.1736533 15.6250453,14.9752533 15.578752,14.7719467 C15.412352,14.03744 15.2205653,13.3080533 15.1318187,12.55776 C15.1215787,12.4717867 15.082752,12.39008 15.0671787,12.30432 C15.0498987,12.2104533 15.1098453,12.1483733 15.2047787,12.1665067 C15.2809387,12.1808 15.3577387,12.2072533 15.4266453,12.2430933 C15.7735253,12.4231467 16.1436587,12.5268267 16.5289387,12.5716267 C17.2634453,12.6571733 17.9106987,12.9451733 18.4905387,13.3950933 C18.5735253,13.4593067 18.6509653,13.5303467 18.742272,13.608 C18.792832,13.5911467 18.851712,13.5774933 18.9050453,13.5525333 C19.8426453,13.1134933 20.8092587,12.7486933 21.7916587,12.4248533 C22.1404587,12.3098667 22.4890453,12.1925333 22.8416853,12.09056 C22.9876053,12.04832 23.056512,11.96896 23.0900053,11.8258133 C23.2756053,11.0337067 23.6500053,10.31712 23.9964587,9.58965333 C24.0864853,9.40021333 24.2343253,9.2624 24.4105387,9.16064 C24.6985387,8.99424 24.992512,8.83744 25.287552,8.68362667 C25.8249387,8.40288 26.383232,8.1712 26.9703253,8.01802667 C27.154432,7.96981333 27.3487787,7.95530667 27.5394987,7.94186667 C27.6820053,7.93205333 27.7750187,8.01333333 27.8522453,8.13834667 C28.4045653,9.03328 28.743552,10.01888 29.0844587,11.0042667 C29.0957653,11.0373333 29.107072,11.0706133 29.1145387,11.1047467 C29.1405653,11.2237867 29.2135253,11.27712 29.3346987,11.28928 C29.665792,11.3229867 29.9951787,11.3744 30.3264853,11.40064 C31.124352,11.46336 31.9017387,11.6382933 32.680192,11.8093867 C33.5202987,11.99392 34.3401387,12.2469333 35.1510187,12.5300267 C35.3818453,12.6106667 35.603712,12.7175467 35.8287787,12.8146133 C35.865472,12.8306133 35.896192,12.8594133 35.975552,12.9133867 C35.7818453,12.9264 35.6476587,12.8976 35.516672,12.8677333 C35.192192,12.79392 34.8694187,12.71264 34.546432,12.63264 C33.7632853,12.43872 32.9692587,12.3032533 32.1728853,12.17888 C31.4112853,12.0602667 30.650112,11.9386667 29.8882987,11.82112 C29.716992,11.7946667 29.5439787,11.77888 29.317632,11.7517867 Z" id="Stroke-5" stroke="#000000" stroke-width="0.321"/>
                <path d="M17.1381333,21.1172907 C17.05536,21.6510507 17.3028267,22.151744 17.6834133,22.2532907 C18.06848,21.881664 18.3904,21.240384 18.33792,20.9329707 C17.9424,20.9937707 17.5464533,21.0545707 17.1381333,21.1172907 M17.2706133,22.8049707 C17.3269333,22.7192107 17.38304,22.6332373 17.4487467,22.5333973 C16.9173333,22.3407573 16.7835733,21.8897707 16.6843733,21.4165973 C16.6685867,21.3404373 16.66304,21.262144 16.6513067,21.1729707 C16.5666133,21.1535573 16.48576,21.1349973 16.3744,21.1093973 C16.42048,21.0537173 16.4430933,21.0031573 16.4810667,20.9848107 C16.5749333,20.9397973 16.6743467,20.903744 16.7744,20.8738773 C17.1682133,20.756544 17.5620267,20.6402773 17.9575467,20.529344 C18.1088,20.487104 18.2634667,20.4548907 18.4183467,20.429504 C18.4942933,20.4171307 18.5762133,20.4220373 18.6525867,20.4361173 C18.76032,20.455744 18.7989333,20.513344 18.7980938,20.620224 C18.7978667,20.6377173 18.79744,20.6556373 18.7933867,20.6724907 C18.70592,21.0372907 18.6528,21.415104 18.5213867,21.7634773 C18.34368,22.2347307 18.02304,22.6037973 17.53472,22.7928107 C17.4568533,22.8228907 17.3725867,22.836544 17.2910933,22.857664 C17.28448,22.8401707 17.27744,22.822464 17.2706133,22.8049707" id="Fill-7" fill="#000000"/>
                <path d="M17.1381333,21.1172907 C17.05536,21.6510507 17.3028267,22.151744 17.6834133,22.2532907 C18.06848,21.881664 18.3904,21.240384 18.33792,20.9329707 C17.9424,20.9937707 17.5464533,21.0545707 17.1381333,21.1172907 Z M17.2706133,22.8049707 C17.3269333,22.7192107 17.38304,22.6332373 17.4487467,22.5333973 C16.9173333,22.3407573 16.7835733,21.8897707 16.6843733,21.4165973 C16.6685867,21.3404373 16.66304,21.262144 16.6513067,21.1729707 C16.5666133,21.1535573 16.48576,21.1349973 16.3744,21.1093973 C16.42048,21.0537173 16.4430933,21.0031573 16.4810667,20.9848107 C16.5749333,20.9397973 16.6743467,20.903744 16.7744,20.8738773 C17.1682133,20.756544 17.5620267,20.6402773 17.9575467,20.529344 C18.1088,20.487104 18.2634667,20.4548907 18.4183467,20.429504 C18.4942933,20.4171307 18.5762133,20.4220373 18.6525867,20.4361173 C18.76032,20.455744 18.7989333,20.513344 18.7980938,20.620224 C18.7978667,20.6377173 18.79744,20.6556373 18.7933867,20.6724907 C18.70592,21.0372907 18.6528,21.415104 18.5213867,21.7634773 C18.34368,22.2347307 18.02304,22.6037973 17.53472,22.7928107 C17.4568533,22.8228907 17.3725867,22.836544 17.2910933,22.857664 C17.28448,22.8401707 17.27744,22.822464 17.2706133,22.8049707 Z" id="Stroke-9" stroke="#000000" stroke-width="0.321"/>
            </g>
        </g>
    </g>
</svg>