<?xml version="1.0" standalone="no"?>
<!DOCTYPE svg PUBLIC "-//W3C//DTD SVG 1.1//EN" "http://www.w3.org/Graphics/SVG/1.1/DTD/svg11.dtd">
<svg version="1.1" xmlns="http://www.w3.org/2000/svg" xmlns:xlink="http://www.w3.org/1999/xlink"><metadata>This SVG WebFont was generated by YouWorkForThem.
</metadata><defs><font horiz-adv-x="592" id="ywftsvg"><font-face ascent="800" bbox="8 -186 827.833 834" cap-height="714" descent="-200" font-family="" font-stretch="normal" font-weight="400" panose-1="0 0 0 0 0 0 0 0 0 0" underline-position="0" underline-thickness="0" unicode-range="U+0020-007A" units-per-em="1000" x-height="521"/><missing-glyph horiz-adv-x="664"/><glyph glyph-name=".notdef" horiz-adv-x="664"/><glyph glyph-name="glyph1" horiz-adv-x="0"/><glyph glyph-name="glyph2" horiz-adv-x="333"/><glyph glyph-name="space" horiz-adv-x="340" unicode=" "/><glyph d="M155 271q-22 0 -23 22l-9 404q0 24 23 24h59q23 0 22 -24l-9 -404q0 -22 -22 -22h-41zM175 -1q-46 0 -60 14.5t-14 61.5t14 61.5t60 14.5q45 0 59.5 -15t14.5 -61t-14 -61t-60 -15z" glyph-name="exclam" horiz-adv-x="350" unicode="!"/><glyph d="M259 -136q-88 0 -138.5 48t-50.5 125v624q0 78 50.5 125.5t138.5 47.5q22 0 22 -23v-49q0 -23 -22 -23q-43 0 -67 -24t-24 -67v-598q0 -43 24 -67t67 -24q22 0 22 -23v-49q0 -23 -22 -23z" glyph-name="parenleft" horiz-adv-x="347" unicode="("/><glyph d="M88 -136q-22 0 -22 23v49q0 23 22 23q43 0 67 24t24 67v598q0 43 -24 67t-67 24q-22 0 -22 23v49q0 23 22 23q88 0 138.5 -47.5t50.5 -125.5v-624q0 -77 -50.5 -125t-138.5 -48z" glyph-name="parenright" horiz-adv-x="347" unicode=")"/><glyph d="M110 -104q-17 17 5 41q34 32 65 76l-4 2q-8 -7 -27 -7q-46 0 -46 60q0 44 14.5 59.5t57.5 15.5t58.5 -16t15.5 -60q0 -42 -17 -73q-23 -47 -81 -94q-25 -20 -41 -4z" glyph-name="comma" horiz-adv-x="349" unicode=","/><glyph d="M187 0q-46 0 -60 14.5t-14 61.5t14 61.5t60 14.5q45 0 59.5 -15t14.5 -61t-14 -61t-60 -15z" glyph-name="period" horiz-adv-x="374" unicode="."/><glyph d="M239 0q-79 0 -127 48t-48 125v368q0 77 48 125t127 48h114q81 0 128 -49t47 -124v-368q0 -76 -47 -124.5t-128 -48.5h-114zM340 94q43 0 66.5 24t23.5 67v344q0 15 -3 29l-198 -462q14 -2 23 -2h88zM166 153l198 465q-12 2 -24 2h-88q-43 0 -66.5 -24t-23.5 -67v-344 q0 -17 4 -32z" glyph-name="zero" unicode="0"/><glyph d="M195 0q-23 0 -23 23v592h-127q-23 0 -23 23v53q0 23 23 23h177q46 0 46 -48v-643q0 -23 -22 -23h-51z" glyph-name="one" horiz-adv-x="341" unicode="1"/><glyph d="M112 0q-25 0 -39 15t-14 37q0 30 42 77l231 262q28 32 40 47.5t23 38t11 43.5q0 99 -85 99h-76q-84 0 -84 -81v-37q0 -23 -23 -23h-52q-23 0 -23 23v44q0 76 50 122.5t125 46.5h86q79 0 132 -51.5t53 -133.5q0 -49 -27.5 -95t-92.5 -119l-190 -216h288q23 0 23 -23v-53 q0 -23 -23 -23h-375z" glyph-name="two" horiz-adv-x="547" unicode="2"/><glyph d="M64 0q-23 0 -23 23v49q0 23 23 23h203q47 0 72 25t25 68v50q0 81 -86 81h-154q-23 0 -23 23v43q0 23 23 23h152q43 0 65.5 21.5t22.5 60.5v36q0 44 -25.5 68.5t-71.5 24.5h-203q-23 0 -23 23v49q0 23 23 23h223q79 0 126.5 -48t47.5 -125v-49q0 -81 -69 -121 q73 -41 73 -129v-65q0 -81 -48 -129t-127 -48h-226z" glyph-name="three" horiz-adv-x="497" unicode="3"/><glyph d="M365 0q-22 0 -22 23v101h-244q-46 0 -46 46v527q0 23 23 23h52q10 0 16.5 -6.5t6.5 -16.5v-475h192v189q0 22 22 22h53q22 0 22 -22v-189h73q22 0 22 -23v-50q0 -23 -22 -23h-73v-103q0 -23 -22 -23h-53z" glyph-name="four" horiz-adv-x="564" unicode="4"/><glyph d="M232 0q-74 0 -121 44.5t-47 114.5v37q0 22 23 22h50q23 0 23 -22v-20q0 -38 22.5 -59.5t62.5 -21.5h78q41 0 63.5 22.5t22.5 63.5v106q0 41 -22.5 63.5t-63.5 22.5h-73q-88 0 -94 -73q-2 -18 -19 -18h-47q-19 0 -19 19v354q0 59 51 59h344q23 0 23 -23v-49q0 -23 -23 -23 h-297v-216h4q24 56 114 56h49q76 0 123.5 -45.5t47.5 -125.5v-117q0 -80 -49.5 -125.5t-126.5 -45.5h-99z" glyph-name="five" horiz-adv-x="547" unicode="5"/><glyph d="M239 0q-79 0 -127 47t-48 124l1 144q0 83 41 157l119 218q13 24 38 24h32q19 0 26.5 -11t-1.5 -28l-144 -268h4q30 36 98 36h66q77 0 126.5 -46t49.5 -125v-101q0 -80 -49.5 -125.5t-126.5 -45.5h-105zM336 95q41 0 63.5 22.5t22.5 63.5v90q0 41 -22.5 63.5t-63.5 22.5 h-88q-41 0 -63.5 -22.5t-22.5 -63.5v-90q0 -41 22.5 -63.5t63.5 -22.5h88z" glyph-name="six" horiz-adv-x="560" unicode="6"/><glyph d="M85 0q-19 0 -25.5 11t1.5 28l266 576h-296q-23 0 -23 23v53q0 23 23 23h373q18 0 28 -10.5t10 -27.5v-47l-277 -605q-12 -24 -39 -24h-41z" glyph-name="seven" horiz-adv-x="461" unicode="7"/><glyph d="M232 0q-73 0 -120.5 45t-47.5 123v71q0 95 75 140q-56 42 -56 125v42q0 78 47.5 123t120.5 45h88q75 0 121 -46.5t46 -121.5v-42q0 -81 -56 -125q75 -44 75 -140v-71q0 -75 -46 -121.5t-122 -46.5h-125zM337 95q41 0 63.5 22.5t22.5 63.5v61q0 41 -22.5 63t-63.5 22h-85 q-41 0 -63.5 -22t-22.5 -63v-61q0 -41 22.5 -63.5t63.5 -22.5h85zM326 410q41 0 63.5 22.5t22.5 63.5v37q0 41 -22.5 63.5t-63.5 22.5h-62q-41 0 -63.5 -22.5t-22.5 -63.5v-37q0 -41 22.5 -63.5t63.5 -22.5h62z" glyph-name="eight" horiz-adv-x="589" unicode="8"/><glyph d="M321 714q79 0 127 -47t48 -124l-1 -144q0 -83 -41 -157l-119 -218q-13 -24 -38 -24h-32q-19 0 -26.5 11t1.5 28l144 268h-4q-30 -36 -98 -36h-66q-77 0 -126.5 46t-49.5 125v101q0 80 49.5 125.5t126.5 45.5h105zM224 619q-41 0 -63.5 -22.5t-22.5 -63.5v-90 q0 -41 22.5 -63.5t63.5 -22.5h88q41 0 63.5 22.5t22.5 63.5v90q0 41 -22.5 63.5t-63.5 22.5h-88z" glyph-name="nine" horiz-adv-x="560" unicode="9"/><glyph d="M273 241q-22 0 -22 23v18q0 33 18.5 63.5t44.5 54.5t52.5 48.5t45 55.5t18.5 65q0 36 -22 57.5t-58 21.5h-119q-82 0 -82 -81v-43q0 -23 -23 -23h-52q-23 0 -23 23v50q0 76 50.5 122.5t124.5 46.5h123q78 0 129.5 -48.5t51.5 -127.5q0 -45 -18.5 -82.5t-45 -63t-53 -47.5 t-45 -46t-18.5 -49v-15q0 -10 -6.5 -16.5t-16.5 -6.5h-54zM299 0q-46 0 -60 14.5t-14 61.5t14 61.5t60 14.5q45 0 59.5 -15t14.5 -61t-14 -61t-60 -15z" glyph-name="question" horiz-adv-x="562" unicode="?"/><glyph d="M257 -185q-88 0 -140.5 59t-52.5 149v502q0 80 54.5 134.5t137.5 54.5h257q82 0 138 -54.5t56 -134.5v-363q0 -78 -47.5 -125.5t-123.5 -47.5h-119q-75 0 -123.5 48t-48.5 125v117q0 77 48 125t124 48h78q85 0 110 -56h4v115q0 42 -28.5 73t-70.5 31h-251q-43 0 -71 -31 t-28 -73v-488q0 -44 33 -77t76 -33h27q23 0 23 -23v-52q0 -23 -23 -23h-39zM523 83q41 0 63.5 22.5t22.5 63.5v102q0 41 -22.5 63.5t-63.5 22.5h-94q-41 0 -63.5 -22.5t-22.5 -63.5v-102q0 -41 22.5 -63.5t63.5 -22.5h94z" glyph-name="at" horiz-adv-x="771" unicode="@"/><glyph d="M55 0q-26 0 -20 25l167 653q9 36 47 36h84q37 0 46 -36l169 -653q6 -25 -20 -25h-51q-22 0 -26 20l-46 178h-228l-46 -178q-4 -20 -25 -20h-51zM199 284h184l-86 336q-2 7 -6 7q-3 0 -6 -7z" glyph-name="A" horiz-adv-x="582" unicode="A"/><glyph d="M106 0q-33 0 -33 33v648q0 33 33 33h258q79 0 127 -47t48 -122v-49q0 -85 -69 -125q73 -41 73 -129v-65q0 -81 -50 -129t-130 -48h-257zM350 95q92 0 92 93v50q0 81 -81 81h-190v-224h179zM359 408q83 0 83 82v36q0 93 -92 93h-179v-211h188z" glyph-name="B" horiz-adv-x="575" unicode="B"/><glyph d="M239 0q-79 0 -127 48t-48 125v368q0 77 48 125t127 48h105q76 0 126 -47t50 -122v-43q0 -20 -20 -20h-59q-19 0 -19 20v36q0 39 -24 60t-67 21h-79q-43 0 -66.5 -24t-23.5 -67v-342q0 -43 23.5 -67t66.5 -24h79q44 0 67.5 21t23.5 60v46q0 20 19 20h59q9 0 14.5 -6 t5.5 -14v-53q0 -76 -50 -122.5t-126 -46.5h-105z" glyph-name="C" horiz-adv-x="559" unicode="C"/><glyph d="M106 0q-33 0 -33 33v648q0 33 33 33h243q81 0 128 -49t47 -124v-368q0 -76 -47 -124.5t-128 -48.5h-243zM336 99q43 0 66.5 24t23.5 67v334q0 43 -23.5 67t-66.5 24h-165v-516h165z" glyph-name="D" horiz-adv-x="588" unicode="D"/><glyph d="M106 0q-33 0 -33 33v648q0 33 33 33h367q22 0 22 -23v-53q0 -23 -22 -23h-303v-204h278q23 0 23 -23v-53q0 -23 -23 -23h-278v-213h303q22 0 22 -23v-53q0 -23 -22 -23h-367z" glyph-name="E" horiz-adv-x="529" unicode="E"/><glyph d="M96 0q-23 0 -23 23v658q0 33 33 33h352q23 0 23 -23v-53q0 -23 -23 -23h-287v-204h241q10 0 16.5 -6.5t6.5 -16.5v-53q0 -10 -6.5 -16.5t-16.5 -6.5h-241v-289q0 -23 -23 -23h-52z" glyph-name="F" horiz-adv-x="489" unicode="F"/><glyph d="M239 0q-79 0 -127 48t-48 125v368q0 77 48 125t127 48h110q75 0 125 -46.5t50 -122.5v-33q0 -20 -19 -20h-60q-19 0 -19 20v26q0 39 -23.5 60t-66.5 21h-84q-43 0 -66.5 -24t-23.5 -67v-342q0 -43 23.5 -67t66.5 -24h89q43 0 66.5 24t23.5 67v108h-118q-23 0 -23 23v49 q0 10 6.5 16.5t16.5 6.5h171q21 0 32.5 -13.5t11.5 -35.5v-167q0 -75 -47 -124t-128 -49h-114z" glyph-name="G" horiz-adv-x="593" unicode="G"/><glyph d="M92 0q-19 0 -19 19v676q0 19 19 19h59q20 0 20 -19v-276h273v276q0 19 19 19h59q19 0 19 -19v-676q0 -19 -19 -19h-59q-19 0 -19 19v313h-273v-313q0 -19 -20 -19h-59z" glyph-name="H" horiz-adv-x="614" unicode="H"/><glyph d="M100 0q-19 0 -19 19v676q0 19 19 19h59q19 0 19 -19v-676q0 -19 -19 -19h-59z" glyph-name="I" horiz-adv-x="259" unicode="I"/><glyph d="M209 0q-76 0 -126 47t-50 122v53q0 20 20 20h59q19 0 19 -20v-46q0 -39 23.5 -60t66.5 -21h64q43 0 66.5 24t23.5 67v509q0 19 20 19h59q19 0 19 -19v-522q0 -77 -48 -125t-127 -48h-89z" glyph-name="J" horiz-adv-x="537" unicode="J"/><glyph d="M92 0q-19 0 -19 19v676q0 19 19 19h59q19 0 19 -19v-272l261 279q11 12 28 12h68q14 0 18 -8.5t-6 -19.5l-305 -327l315 -331q11 -11 7.5 -19.5t-18.5 -8.5h-70q-17 0 -29 12l-269 284v-277q0 -19 -19 -19h-59z" glyph-name="K" horiz-adv-x="563" unicode="K"/><glyph d="M106 0q-33 0 -33 33l1 658q0 23 23 23h51q23 0 23 -23v-596h298q23 0 23 -23v-49q0 -23 -23 -23h-363z" glyph-name="L" horiz-adv-x="524" unicode="L"/><glyph d="M92 0q-19 0 -19 19v662q0 33 33 33h83q27 0 37 -28l138 -355q2 -6 4 -6t5 6l138 355q10 28 37 28h83q33 0 33 -33v-662q0 -19 -19 -19h-56q-19 0 -19 19v545h-3l-139 -354q-14 -36 -46 -36h-27q-33 0 -46 36l-139 354h-2v-545q0 -19 -20 -19h-56z" glyph-name="M" horiz-adv-x="737" unicode="M"/><glyph d="M92 0q-19 0 -19 19v662q0 33 33 33h39q26 0 40 -23l265 -510h2v514q0 19 20 19h58q20 0 20 -19v-662q0 -33 -34 -33h-39q-27 0 -40 23l-264 510h-2v-514q0 -19 -20 -19h-59z" glyph-name="N" horiz-adv-x="622" unicode="N"/><glyph d="M239 0q-79 0 -127 48t-48 125v368q0 77 48 125t127 48h114q81 0 128 -49t47 -124v-368q0 -76 -47 -124.5t-128 -48.5h-114zM340 94q43 0 66.5 24t23.5 67v344q0 43 -23.5 67t-66.5 24h-88q-43 0 -66.5 -24t-23.5 -67v-344q0 -43 23.5 -67t66.5 -24h88z" glyph-name="O" unicode="O"/><glyph d="M92 0q-19 0 -19 19v662q0 33 33 33h230q75 0 123 -47t48 -126v-113q0 -80 -47.5 -126.5t-123.5 -46.5h-165v-236q0 -19 -20 -19h-59zM323 353q41 0 63.5 22.5t22.5 63.5v90q0 41 -22.5 63.5t-63.5 22.5h-152v-262h152z" glyph-name="P" horiz-adv-x="548" unicode="P"/><glyph d="M276 -88q-20 0 -20 19v69h-17q-79 0 -127 48t-48 125v368q0 77 48 125t127 48h114q81 0 128 -49t47 -124v-368q0 -76 -47 -124.5t-128 -48.5h-17v-69q0 -19 -19 -19h-41zM340 94q43 0 66.5 24t23.5 67v344q0 43 -23.5 67t-66.5 24h-88q-43 0 -66.5 -24t-23.5 -67v-344 q0 -43 23.5 -67t66.5 -24h4v96q0 19 20 19h41q19 0 19 -19v-96h4z" glyph-name="Q" unicode="Q"/><glyph d="M92 0q-19 0 -19 19v662q0 33 33 33h241q79 0 127 -47t48 -122v-62q0 -89 -73 -126q39 -19 53 -50.5t14 -78.5v-209q0 -19 -19 -19h-62q-20 0 -20 19v204q0 82 -80 82h-164v-286q0 -19 -20 -19h-59zM341 394q37 0 57 19t20 55v65q0 41 -22.5 63.5t-63.5 22.5h-161v-225 h170z" glyph-name="R" horiz-adv-x="590" unicode="R"/><glyph d="M254 0q-81 0 -132.5 46.5t-51.5 122.5v43q0 20 19 20h59q20 0 20 -20v-39q0 -38 21 -59t59 -21h96q37 0 58.5 19.5t21.5 48.5l-1 65q0 30 -22 46.5t-65 28.5l-100 26q-80 21 -120 54t-40 104v70q0 72 50 115.5t134 43.5h71q81 0 132.5 -46.5t51.5 -122.5v-35 q0 -9 -6 -14.5t-14 -5.5h-59q-19 0 -19 20v31q0 38 -21 59t-59 21h-85q-38 0 -59.5 -19t-20.5 -49v-65q1 -31 23 -47.5t65 -27.5l100 -26q79 -21 119.5 -58t40.5 -101v-69q0 -70 -49.5 -114.5t-134.5 -44.5h-82z" glyph-name="S" horiz-adv-x="589" unicode="S"/><glyph d="M203 0q-19 0 -19 19v596h-153q-23 0 -23 23v53q0 23 23 23h404q23 0 23 -23v-53q0 -23 -23 -23h-153v-596q0 -19 -20 -19h-59z" glyph-name="T" horiz-adv-x="466" unicode="T"/><glyph d="M247 0q-79 0 -127 48t-48 125v522q0 19 19 19h60q19 0 19 -19v-509q0 -43 23.5 -67t66.5 -24h84q43 0 66.5 24t23.5 67v509q0 19 19 19h60q19 0 19 -19v-522q0 -76 -47.5 -124.5t-127.5 -48.5h-110z" glyph-name="U" horiz-adv-x="604" unicode="U"/><glyph d="M249 0q-38 0 -47 36l-167 653q-6 25 20 25h51q21 0 25 -20l154 -600q2 -7 6 -7t6 7l154 600q4 20 26 20h51q25 0 20 -25l-169 -653q-9 -36 -46 -36h-84z" glyph-name="V" horiz-adv-x="582" unicode="V"/><glyph d="M188 0q-40 0 -46 37l-108 652q-3 25 20 25h52q22 0 25 -20l95 -560q1 -7 6 -7t7 7l142 560q5 20 25 20h43q21 0 26 -20l138 -555q2 -8 6 -8t6 8l105 555q4 20 26 20h51q25 0 20 -25l-118 -652q-7 -37 -46 -37h-79q-37 0 -46 37l-106 434q-2 6 -5 6t-5 -6l-107 -434 q-8 -37 -46 -37h-81z" glyph-name="W" horiz-adv-x="861" unicode="W"/><glyph d="M54 0q-13 0 -18 8t2 19l199 339l-188 321q-7 12 -2.5 19.5t17.5 7.5h64q17 0 27 -16l133 -236q4 -6 6 -6t6 6l132 236q9 16 27 16h64q13 0 17.5 -8t-2.5 -19l-188 -321l199 -339q7 -12 2.5 -19.5t-17.5 -7.5h-64q-18 0 -27 16l-144 245q-4 6 -5 6q-3 0 -6 -6l-143 -245 q-9 -16 -28 -16h-63z" glyph-name="X" horiz-adv-x="587" unicode="X"/><glyph d="M248 0q-19 0 -19 19v243l-192 425q-5 12 -1 19.5t17 7.5h52q19 0 27 -17l141 -313q2 -6 5 -6q4 0 6 6l141 313q7 17 26 17h52q28 0 17 -27l-193 -426v-242q0 -19 -19 -19h-60z" glyph-name="Y" horiz-adv-x="556" unicode="Y"/><glyph d="M83 0q-20 0 -32 13.5t-12 32.5q0 11 4 22.5t7 17t15.5 24t16.5 25.5l300 480h-314q-22 0 -22 23v53q0 23 22 23h401q43 0 43 -39q0 -11 -4.5 -24t-8.5 -20t-15.5 -24.5t-15.5 -23.5l-300 -484h331q22 0 22 -23v-53q0 -23 -22 -23h-416z" glyph-name="Z" horiz-adv-x="563" unicode="Z"/><glyph d="M193 0q-78 0 -123.5 41t-45.5 114q0 71 46.5 110t130.5 39h173v49q0 39 -22.5 60.5t-63.5 21.5h-62q-79 0 -79 -63v-15q0 -19 -19 -19h-55q-19 0 -19 19v24q0 63 48 101.5t123 38.5h74q79 0 127.5 -47t48.5 -124v-331q0 -19 -20 -19h-55q-19 0 -19 19v37h-4 q-25 -56 -119 -56h-65zM288 86q42 0 64 22.5t22 63.5v63h-163q-89 0 -89 -76q0 -39 23 -56t69 -17h74z" glyph-name="a" horiz-adv-x="515" unicode="a"/><glyph d="M59 0q-19 0 -19 19v676q0 19 19 19h60q19 0 19 -19v-230h4q25 56 111 56h67q77 0 126.5 -46t49.5 -125v-179q0 -80 -49.5 -125.5t-126.5 -45.5h-64q-93 0 -118 56h-4v-37q0 -19 -20 -19h-55zM312 95q41 0 63.5 22.5t22.5 63.5v159q0 41 -22.5 63.5t-63.5 22.5h-88 q-41 0 -63.5 -22.5t-22.5 -63.5v-159q0 -41 22.5 -63.5t63.5 -22.5h88z" glyph-name="b" horiz-adv-x="536" unicode="b"/><glyph d="M215 0q-79 0 -127 47t-48 124v179q0 77 48 124t127 47h95q74 0 121 -44.5t47 -114.5v-30q0 -19 -20 -19h-57q-20 0 -20 19v13q0 38 -22 59.5t-63 21.5h-72q-41 0 -63.5 -22.5t-22.5 -63.5v-159q0 -41 22.5 -63.5t63.5 -22.5h72q41 0 63 22t22 59v13q0 19 20 19h57 q20 0 20 -19v-30q0 -70 -47 -114.5t-121 -44.5h-95z" glyph-name="c" horiz-adv-x="519" unicode="c"/><glyph d="M422 0q-20 0 -20 19v37h-4q-25 -56 -118 -56h-64q-77 0 -126.5 45.5t-49.5 125.5v179q0 79 49.5 125t126.5 46h67q86 0 111 -56h4v230q0 19 19 19h60q19 0 19 -19v-676q0 -19 -19 -19h-55zM312 95q41 0 63.5 22.5t22.5 63.5v159q0 41 -22.5 63.5t-63.5 22.5h-88 q-41 0 -63.5 -22.5t-22.5 -63.5v-159q0 -41 22.5 -63.5t63.5 -22.5h88z" glyph-name="d" horiz-adv-x="536" unicode="d"/><glyph d="M215 0q-79 0 -127 47t-48 124v186q0 76 48 120t126 44h95q80 0 127.5 -45t47.5 -119v-89q0 -20 -11 -31.5t-31 -11.5h-304v-48q0 -40 23 -61t63 -21h216q10 0 16.5 -6.5t6.5 -16.5v-49q0 -23 -23 -23h-225zM138 301h247v48q0 41 -22.5 63.5t-63.5 22.5h-75 q-41 0 -63.5 -22.5t-22.5 -63.5v-48z" glyph-name="e" horiz-adv-x="524" unicode="e"/><glyph d="M175 0q-23 0 -23 23v399h-98q-23 0 -23 23v53q0 23 23 23h98v22q0 77 48 124t124 47h63q23 0 23 -23v-49q0 -10 -6.5 -16.5t-16.5 -6.5h-52q-41 0 -63.5 -20t-22.5 -57v-21h113q23 0 23 -23v-53q0 -23 -23 -23h-113v-399q0 -23 -23 -23h-51z" glyph-name="f" horiz-adv-x="429" unicode="f"/><glyph d="M107 -180q-23 0 -23 23v49q0 23 23 23h203q41 0 63.5 22.5t22.5 63.5v91h-4q-25 -56 -109 -56h-65q-76 0 -123.5 48.5t-47.5 124.5l-1 141q0 80 49.5 125.5t126.5 45.5h56q94 0 119 -56h4v33q0 23 23 23h47q23 0 23 -23v-503q0 -80 -48 -127.5t-127 -47.5h-212zM313 132 q41 0 63.5 22.5t22.5 63.5v122q0 41 -22.5 63.5t-63.5 22.5h-84q-41 0 -63.5 -22.5t-22.5 -63.5v-122q0 -41 22.5 -63.5t63.5 -22.5h84z" glyph-name="g" horiz-adv-x="534" unicode="g"/><glyph d="M80 0q-23 0 -23 23v668q0 23 23 23h52q23 0 23 -23v-226h4q25 56 110 56h64q76 0 123.5 -48.5t47.5 -124.5v-325q0 -23 -23 -23h-52q-23 0 -23 23v314q0 41 -22.5 63.5t-63.5 22.5h-79q-41 0 -63.5 -22.5t-22.5 -63.5v-314q0 -23 -23 -23h-52z" glyph-name="h" horiz-adv-x="549" unicode="h"/><glyph d="M96 0q-23 0 -23 23v475q0 23 23 23h52q23 0 23 -23v-475q0 -23 -23 -23h-52zM122 630q-39 0 -52 12.5t-13 48.5t13.5 49t51.5 13q37 0 50.5 -13t13.5 -49t-13 -48.5t-51 -12.5z" glyph-name="i" horiz-adv-x="243" unicode="i"/><glyph d="M91 -180q-23 0 -23 23v49q0 23 23 23h81q41 0 63.5 22.5t22.5 63.5v497q0 23 23 23h52q23 0 23 -23v-507q0 -77 -49.5 -124t-125.5 -47h-90zM307 630q-39 0 -52 12.5t-13 48.5t13.5 49t51.5 13q37 0 50.5 -13t13.5 -49t-13 -48.5t-51 -12.5z" glyph-name="j" horiz-adv-x="428" unicode="j"/><glyph d="M80 0q-23 0 -23 23v668q0 23 23 23h52q23 0 23 -23v-359l172 175q16 17 41 17h55q23 0 28.5 -12.5t-10.5 -28.5l-219 -220l221 -222q16 -16 10.5 -28.5t-27.5 -12.5h-55q-25 0 -41 17l-175 178v-172q0 -23 -23 -23h-52z" glyph-name="k" horiz-adv-x="468" unicode="k"/><glyph d="M80 0q-23 0 -23 23v668q0 23 23 23h52q23 0 23 -23v-668q0 -23 -23 -23h-52z" glyph-name="l" horiz-adv-x="212" unicode="l"/><glyph d="M67 0q-22 0 -22 23v475q0 23 22 23h48q23 0 23 -23v-33h4q25 56 114 56h30q87 0 128 -59q45 59 131 59h35q74 0 122.5 -46t48.5 -125v-327q0 -23 -23 -23h-52q-23 0 -23 23v317q0 41 -22.5 63.5t-63.5 22.5h-32q-41 0 -63.5 -22.5t-22.5 -63.5v-317q0 -23 -23 -23h-52 q-23 0 -23 23v317q0 41 -22.5 63.5t-63.5 22.5h-36q-42 0 -64 -22.5t-22 -63.5v-317q0 -23 -23 -23h-53z" glyph-name="m" horiz-adv-x="795" unicode="m"/><glyph d="M67 0q-22 0 -22 23v475q0 23 22 23h48q23 0 23 -23v-33h4q25 56 113 56h61q77 0 126.5 -46t49.5 -125v-327q0 -23 -23 -23h-52q-23 0 -23 23v317q0 41 -22.5 63.5t-63.5 22.5h-79q-42 0 -64 -22.5t-22 -63.5v-317q0 -23 -23 -23h-53z" glyph-name="n" horiz-adv-x="536" unicode="n"/><glyph d="M215 0q-79 0 -127 47t-48 124v179q0 77 48 124t127 47h107q76 0 125.5 -46t49.5 -125v-179q0 -80 -49 -125.5t-126 -45.5h-107zM313 94q41 0 63.5 22.5t22.5 63.5v161q0 41 -22.5 63.5t-63.5 22.5h-89q-41 0 -63.5 -22.5t-22.5 -63.5v-161q0 -41 22.5 -63.5t63.5 -22.5 h89z" glyph-name="o" horiz-adv-x="537" unicode="o"/><glyph d="M67 -186q-22 0 -22 23v661q0 23 22 23h48q23 0 23 -23v-33h4q25 56 119 56h64q76 0 125.5 -46t49.5 -125v-179q0 -80 -49 -125.5t-126 -45.5h-69q-84 0 -109 56h-4v-219q0 -10 -6.5 -16.5t-16.5 -6.5h-53zM316 95q41 0 63.5 22.5t22.5 63.5v159q0 41 -22.5 63.5 t-63.5 22.5h-87q-42 0 -64 -22.5t-22 -63.5v-159q0 -41 22 -63.5t64 -22.5h87z" glyph-name="p" horiz-adv-x="540" unicode="p"/><glyph d="M420 -186q-10 0 -16.5 6.5t-6.5 16.5v219h-4q-25 -56 -109 -56h-69q-77 0 -126 45.5t-49 125.5v179q0 79 49.5 125t125.5 46h64q94 0 119 -56h4v33q0 23 23 23h48q22 0 22 -23v-661q0 -23 -22 -23h-53zM311 95q42 0 64 22.5t22 63.5v159q0 41 -22 63.5t-64 22.5h-87 q-41 0 -63.5 -22.5t-22.5 -63.5v-159q0 -41 22.5 -63.5t63.5 -22.5h87z" glyph-name="q" horiz-adv-x="540" unicode="q"/><glyph d="M67 0q-22 0 -22 23v475q0 23 22 23h48q23 0 23 -23v-33h4q25 56 111 56h37q71 0 116 -45t45 -114v-38q0 -23 -23 -23h-50q-23 0 -23 23l-1 21q-6 81 -85 81h-39q-41 0 -63.5 -22.5t-22.5 -63.5v-317q0 -23 -23 -23h-54z" glyph-name="r" horiz-adv-x="464" unicode="r"/><glyph d="M215 0q-77 0 -126 35.5t-50 98.5v27q0 23 23 23h48q10 0 16.5 -6.5t6.5 -16.5v-16q0 -59 80 -59h87q75 0 75 58q0 28 -19.5 44t-62.5 24l-92 18q-83 17 -122 48t-39 91q0 69 44.5 110.5t125.5 41.5h83q75 0 122.5 -38t48.5 -101v-25q0 -23 -23 -23h-48q-10 0 -16.5 6.5 t-6.5 16.5v14q0 64 -80 64h-78q-74 0 -74 -64q0 -30 17.5 -41.5t64.5 -20.5l109 -21q144 -28 144 -146q0 -62 -45 -102t-125 -40h-88z" glyph-name="s" horiz-adv-x="512" unicode="s"/><glyph d="M288 0q-75 0 -114.5 40t-39.5 114v272h-80q-23 0 -23 23v49q0 23 23 23h80v176q0 23 23 23h52q23 0 23 -23v-176h157q23 0 23 -23v-49q0 -10 -6.5 -16.5t-16.5 -6.5h-157v-258q0 -37 16 -53t53 -16h69q23 0 23 -23v-53q0 -23 -23 -23h-82z" glyph-name="t" horiz-adv-x="431" unicode="t"/><glyph d="M220 0q-76 0 -125.5 46t-49.5 125v327q0 23 22 23h53q23 0 23 -23v-317q0 -41 22.5 -63.5t63.5 -22.5h73q41 0 63.5 22.5t22.5 63.5v317q0 23 23 23h52q23 0 23 -23v-475q0 -23 -23 -23h-47q-24 0 -24 23v33h-4q-25 -56 -112 -56h-56z" glyph-name="u" horiz-adv-x="531" unicode="u"/><glyph d="M223 0q-33 0 -43 31l-163 464q-9 26 19 26h57q21 0 26 -19l135 -403q3 -8 6 -8t5 8l133 403q6 19 26 19h57q28 0 19 -26l-161 -464q-11 -31 -43 -31h-73z" glyph-name="v" horiz-adv-x="517" unicode="v"/><glyph d="M193 0q-33 0 -42 32l-134 463q-3 11 2.5 18.5t16.5 7.5h52q21 0 25 -19l118 -394q2 -8 6 -8t6 8l95 393q4 20 25 20h32q19 0 25 -20l96 -393q2 -8 7 -8q4 0 7 8l118 394q5 19 26 19h52q26 0 19 -26l-138 -463q-9 -32 -42 -32h-73q-33 0 -42 33l-67 260q-1 6 -4 6 q-2 0 -4 -6l-67 -260q-9 -33 -41 -33h-74z" glyph-name="w" horiz-adv-x="762" unicode="w"/><glyph d="M480 0q-24 0 -41 18l-153 175l-150 -174q-16 -19 -41 -19h-49q-21 0 -27 12t8 29l194 226l-187 213q-14 16 -8.5 28.5t26.5 12.5h51q25 0 41 -18l142 -160l136 159q16 19 41 19h50q21 0 27 -12.5t-8 -28.5l-181 -211l201 -228q15 -17 9 -29t-28 -12h-53z" glyph-name="x" horiz-adv-x="572" unicode="x"/><glyph d="M171 -178q-27 0 -18 26l54 143l-189 492q-7 18 0.5 28t25.5 10h36q28 0 38 -27l134 -367q2 -7 5 -7q4 0 6 7l131 367q9 27 38 27h37q40 0 26 -38l-247 -643q-7 -18 -27 -18h-50z" glyph-name="y" horiz-adv-x="513" unicode="y"/><glyph d="M86 0q-26 0 -40.5 14t-14.5 37q0 12 6.5 26t13 23t25.5 32l238 295h-250q-22 0 -22 22v49q0 23 22 23h344q49 0 49 -44q0 -35 -44 -85l-247 -297h275q10 0 16.5 -6.5t6.5 -16.5v-49q0 -23 -23 -23h-355z" glyph-name="z" horiz-adv-x="483" unicode="z"/></font>
</defs>
</svg>
